<?xml version="1.0" encoding="UTF-8"?>
<svg width="116.39" height="128" clip-rule="evenodd" fill-rule="evenodd" stroke-linecap="round" stroke-linejoin="round" version="1.1" viewBox="0 0 116.39 128" xml:space="preserve" xmlns="http://www.w3.org/2000/svg"><g transform="matrix(.39356 0 0 .39356 -99.23 -31.326)"><g fill="none" stroke="#000" stroke-width="29.57px"><path d="m533.08 301.36v-118.3c-0.011-10.542-5.658-20.311-14.787-25.581l-103.51-59.148c-9.139-5.277-20.435-5.277-29.574 0l-103.51 59.148c-9.129 5.27-14.776 15.039-14.787 25.581v118.3c0.011 10.542 5.658 20.31 14.787 25.581l103.51 59.148c9.139 5.277 20.435 5.277 29.574 0l103.51-59.148c9.129-5.271 14.776-15.039 14.787-25.581z"/><g stroke-linecap="butt"><path d="m333.46 127.02 66.541 38.447 66.541-38.447"/><path d="m333.46 357.4v-76.745l-66.542-38.446"/><path d="m270.91 167.69 129.09 74.674 129.09-74.674"/><path d="m400 391.27v-149.05"/></g></g><path d="m454.32 227.28 24.84-14.192 39.277 99.232-24.286 13.876-3.416-8.993-35.124 20.067-3.415 12.897-37.154 21.227zm27.721 68.074-10.466-31.116-9.877 43.194z" fill-rule="nonzero"/></g></svg>
