<svg width="128" height="128" fill="none" version="1.1" viewBox="0 0 128 128" xmlns="http://www.w3.org/2000/svg">
 <g fill="#000">
  <path d="m83 23c5.8348 0 11.431 2.3179 15.556 6.4437 4.1256 4.1258 6.4436 9.7215 6.4436 15.556v38c0 5.8348-2.318 11.431-6.4436 15.556-4.1258 4.1256-9.7216 6.4436-15.556 6.4436h-38c-5.8348 0-11.43-2.318-15.556-6.4436-4.1258-4.1258-6.4437-9.7216-6.4437-15.556v-38c0-5.8348 2.3179-11.43 6.4437-15.556s9.7215-6.4437 15.556-6.4437h38zm0-8h-38c-7.9492 0.0237-15.566 3.1921-21.187 8.813-5.6209 5.621-8.7893 13.238-8.813 21.187v38c0.0237 7.9492 3.1921 15.566 8.813 21.187 5.621 5.621 13.238 8.789 21.187 8.813h38c7.9492-0.024 15.566-3.192 21.187-8.813s8.789-13.238 8.813-21.187v-38c-0.024-7.9492-3.192-15.566-8.813-21.187-5.621-5.6209-13.238-8.7893-21.187-8.813z"/>
  <path d="m90.14 32c-1.1333 0-2.2411 0.3361-3.1834 0.9657s-1.6767 1.5245-2.1104 2.5715-0.5472 2.1992-0.3261 3.3107 0.7668 2.1325 1.5682 2.9338c0.8013 0.8014 1.8223 1.3471 2.9338 1.5682s2.2637 0.1076 3.3107-0.3261 1.9419-1.1681 2.5715-2.1104 0.9657-2.0501 0.9657-3.1834c0-0.7525-0.1482-1.4976-0.4362-2.1928-0.2879-0.6952-0.71-1.3268-1.2421-1.8589s-1.1637-0.9542-1.8589-1.2421c-0.6952-0.288-1.4403-0.4362-2.1928-0.4362z"/>
  <path d="m64.27 46.47c3.4976-2e-3 6.9172 1.0335 9.8262 2.9754 2.909 1.942 5.1767 4.7031 6.5161 7.9341s1.6903 6.7867 1.0085 10.217c-0.6819 3.4306-2.366 6.5817-4.8392 9.0549s-5.6243 4.1573-9.0549 4.8392c-3.4305 0.6818-6.9862 0.3309-10.217-1.0085s-5.9921-3.6071-7.9341-6.5161c-1.9419-2.9089-2.9774-6.3286-2.9754-9.8262 0.0079-4.6839 1.8721-9.1738 5.1842-12.486 3.312-3.3121 7.8019-5.1763 12.486-5.1842zm0-8c-5.0773 0.0099-10.038 1.5246-14.254 4.3528-4.2167 2.8282-7.5004 6.8429-9.4361 11.537-1.9357 4.6938-2.4365 9.8562-1.4392 14.835s3.448 9.5494 7.0424 13.135 8.1711 6.0261 13.152 7.0118c4.9807 0.9857 10.142 0.4728 14.831-1.4739 4.6894-1.9466 8.6964-5.2397 11.515-9.4629 2.8184-4.2233 4.3216-9.1873 4.3196-14.265-0.0013-3.3757-0.6682-6.7181-1.9624-9.8358-1.2943-3.1178-3.1905-5.9497-5.5803-8.3339s-5.2262-4.2739-8.347-5.5609c-3.1207-1.2869-6.4646-1.946-9.8403-1.9394z"/>
 </g>
</svg>
