<svg width="128" height="128" fill="none" version="1.1" viewBox="0 0 128 128" xmlns="http://www.w3.org/2000/svg">
 <path d="m63.824 15.001c-1.8173-0.01122-3.5958 0.08052-5.2949 0.27929-10.618 1.2311-20.646 5.8994-28.264 13.183-7.848 7.4636-12.721 16.594-14.67 27.468-0.74376 4.0267-0.79572 11.158-0.1289 15.492 2.1287 13.85 9.8739 25.878 21.697 33.675 5.1037 3.3599 10.875 5.6945 17.672 7.1308 3.4367 0.71815 4.1294 0.76952 8.5664 0.76952 2.975-0.0256 5.8976-0.17905 7.539-0.43554 27.878-4.1293 46.627-30.676 41.088-58.197-3.411-16.902-15.671-30.956-31.957-36.625-5.0012-1.7505-10.796-2.7085-16.248-2.7422zm3.2187 6.164c1.058-0.02225 2.4947 0.08727 4.0488 0.33594 4.8474 0.79617 11.01 3.0452 13.615 4.8593 3.2076 2.2637 5.6089 4.8467 6.8086 7.2226l0.24414 0.49804-0.50976 0.2832-0.0039 2e-3c-0.68432 0.39106-2.3631 1.2965-3.666 1.9863l-1.998 1.0312-8.2675-2.7871c-2.3833-0.80728-4.5923-1.5637-6.2343-2.1308-0.82102-0.28355-1.5001-0.52038-1.9863-0.6914-0.24308-0.08551-0.43978-0.15512-0.57812-0.20508-0.02367-0.0085-0.01069-0.0033-0.0332-0.01172-0.04057-0.05918-0.09038-0.13521-0.15234-0.24804-0.14773-0.26903-0.32297-0.65159-0.47265-1.0527l-0.0039-0.01172c-0.8617-2.4196-2.2938-5.1018-3.7812-7.0761l-0.0039-0.0039-0.0039-0.0059c-0.23835-0.30898-0.41631-0.55557-0.5996-0.80663 0.14202-0.07512 0.24754-0.13671 0.40625-0.21679 0.70748-0.35698 1.5681-0.73956 1.8047-0.8203 0.24596-0.07 0.7394-0.13719 1.3672-0.15039zm-9.8535 4.5839 0.88867 0.98241c0.51449 0.59684 1.4447 2.0901 2.2031 3.5351 0.75842 1.445 1.3864 3.0251 1.4414 3.3613 0.05239 0.32352 0.05986 0.24472-0.01172 0.39062-0.07193 0.14663-0.35621 0.53139-0.93749 1.2012l0.0059-0.0039c-1.9306 2.1951-4.7046 5.9243-7.6171 10.203-1.1888 1.7257-1.8468 2.6461-2.1562 2.9843-0.08725 0.09536-0.03538 0.05683-0.04102 0.0625-0.27071-0.06149-0.45326-0.07144-0.7832-0.09375-0.37271-0.0252-0.84916-0.04888-1.4062-0.06836-1.1142-0.03896-2.5459-0.06445-4.0449-0.06445-4.2733 0-5.9732 0.1053-7.8515 0.50781-0.60172 0.12528-1.1674 0.23201-1.5742 0.29883-0.0085 0.0014-0.01114 5.42e-4 -0.01953 2e-3 -0.14246-0.25714-0.31207-0.56213-0.53519-0.96489-0.51218-0.92455-1.2102-2.1842-1.9648-3.5527l-0.0039-0.0059c-0.74921-1.382-1.508-2.717-2.1308-3.7617-0.31192-0.52322-0.59033-0.97316-0.81836-1.3262-0.22802-0.353-0.35523-0.56377-0.58007-0.80468l-0.0039-0.0059-0.08008-0.08203 0.61328-0.80859c2.6008-3.4597 7.861-8.2165 11.238-10.146l0.0039-2e-3 2e-3 -2e-3c1.6623-0.96456 6.2363-1.7378 13.125-1.8144zm38.367 14.199c0.07008 0.03588 0.12205 0.05977 0.2168 0.11328 0.32958 0.18613 0.7752 0.46386 1.2305 0.77148l2e-3 2e-3h2e-3c4.1346 2.7733 6.1711 4.9746 6.7617 6.7675v2e-3c1.4638 4.4152 1.7884 15.184 0.59374 19.963v0.0039l-2e-3 2e-3c-0.15262 0.62962-0.43949 1.0793-1.5215 2.1367l-2e-3 2e-3c-0.71069 0.69889-1.7853 1.5767-2.7226 2.2519-0.46866 0.33763-0.90739 0.62764-1.2344 0.81835-0.04619 0.02694-0.06611 0.03391-0.10742 0.05664-0.11483-0.13704-0.23893-0.28462-0.36133-0.48046l-0.0118-0.0196c-1.1856-1.8051-2.7799-3.8961-4.3105-5.7128-1.5306-1.8168-2.9316-3.3227-3.9961-4.0898l0.0078 0.0039-0.64257-0.4707v-18.902l2.8867-1.5644c0.9162-0.4963 1.7878-0.95408 2.4433-1.2832 0.31801-0.15964 0.58018-0.28607 0.76757-0.37109zm-50.922 15.158c0.45878 0.0048 0.93064 0.01548 1.4199 0.03125 1.0855 0.03831 2.1511 0.0832 2.9883 0.13086 0.4186 0.02383 0.78076 0.04841 1.0527 0.07227 0.27197 0.02386 0.49926 0.06427 0.44531 0.05078l0.03125 0.0078 0.03125 0.0059c-0.07991-0.01453-0.02557-0.03729 0.21484 0.21289 0.24042 0.25018 0.61752 0.72797 1.1367 1.4902 1.0384 1.5245 2.6683 4.1779 5.334 8.5995v2e-3l2.914 4.8261-1.2851 5.1894-2e-3 0.0039c-0.74641 3.0887-1.6934 7.2381-2.1094 9.2401l-2e-3 0.0039-0.57617 2.9258-0.68554 0.07422-0.0059 2e-3c-4.4429 0.53624-8.7411 0.92026-11.629 1.0723l-2.9199 0.15625-1.5918-1.4414-2e-3 -2e-3c-4.0057-3.5804-7.3755-8.032-8.9568-11.656v-2e-3c-0.34797-0.82113-0.53685-1.3444-0.61718-1.6992-0.0808-0.35685-0.08137-0.55435-0.02734-0.94335 0.01381-0.10058 0.23035-0.94099 0.5625-1.9726 0.33215-1.0316 0.78484-2.3494 1.2969-3.7851 1.0241-2.8713 2.2914-6.2166 3.332-8.7167l1.2461-3.0039 0.7832-0.20312c1.9288-0.46633 4.4059-0.70532 7.621-0.67187zm40.754 12.724c-0.07245 0.0082 0.07543 0.01419 0.23633 0.07617 0.16779 0.06467 0.3657 0.16832 0.51758 0.26367 0.23861 0.17441 1.3374 1.3037 2.4746 2.6797 1.1423 1.3822 2.4394 3.073 3.5097 4.6093l1.4883 2.1445-0.48632 2.0293-2e-3 0.0039c-0.87594 3.7542-2.7019 9.0055-3.7636 11.082-0.28193 0.53882-0.56576 1.0316-0.77929 1.3711-0.0897 0.14261-0.15517 0.23656-0.20703 0.30859-0.02926 0.01617-0.06342 0.03189-0.0918 0.04883-0.12353 0.07375-0.25069 0.16047-0.39648 0.26367-0.2887 0.20436-0.63771 0.47173-0.99023 0.76952-2.3758 1.9647-8.5674 4.5917-13.615 5.6113h-2e-3l-1.7246 0.35351-4.1836-4.2519-2e-3 -2e-3c-1.2484-1.274-2.4033-2.4938-3.248-3.4179-0.4226-0.46235-0.76849-0.85065-1.0039-1.1289-0.08166-0.09652-0.12817-0.15775-0.17969-0.22265 0.01071-0.12541 0.02786-0.28798 0.05859-0.50781 0.06928-0.49548 0.18538-1.1893 0.33594-2.0058 0.30111-1.6331 0.7364-3.7652 1.2012-5.9121 0.46476-2.1469 0.95963-4.3101 1.3789-6.0097 0.20964-0.84979 0.40016-1.5843 0.55664-2.1347 0.11226-0.3949 0.16825-0.53134 0.2168-0.66992 0.10875-0.04148 0.20466-0.08074 0.37109-0.13867 0.49383-0.17189 1.2119-0.40332 2.0723-0.67187 1.7208-0.53711 4.0194-1.2211 6.3515-1.8945 2.3321-0.67342 4.6998-1.3377 6.5566-1.834 0.9284-0.24815 1.7304-0.45377 2.3301-0.59765 0.59968-0.14388 1.129-0.21805 0.99999-0.21289zm-64.175 7.1074 1.2305 0.20508c0.69247 0.07694 1.3332 0.25704 1.4101 0.33398 0.10259 0.10259 0.30875 0.64082 0.48828 1.2051 1.3849 4.5141 5.9998 10.901 11.488 15.851l1.334 1.2305 0.38476 2.539c0.51294 3.4368 0.51253 3.4636-0.1543 3.0019-3.1289-2.2057-7.1283-6.4395-9.9238-10.517-2.5647-3.7446-5.4132-9.8217-6.08-12.976zm69.22 23.418c0.0256 0 0.23037 0.07536 0.43554 0.15234 0.3334 0.12824 0.10401 0.41219-0.92187 1.1816-3.5393 2.6418-8.7986 5.2834-13.312 6.6171-2.2826 0.66685-6.8988 1.6405-7.0527 1.4609-0.05129-0.0256 0.53969-0.58926 1.2578-1.2305 1.2054-1.0516 1.5635-1.2055 4-1.7441 5.3089-1.1798 11.029-3.3851 14.158-5.4882 0.74375-0.5386 1.4099-0.94921 1.4355-0.94921z" fill="#000"/>
</svg>
