<svg width="128" height="128" fill="none" version="1.1" viewBox="0 0 128 128" xmlns="http://www.w3.org/2000/svg">
 <path d="m86.94 30.66c2.6282 0.0361 5.2223 0.601 7.6276 1.661 2.4052 1.06 4.5724 2.5935 6.3724 4.509 0 0 7.64-1.5 11.86-4.47 0 0-1.06 5.88-8.09 10.38h0.06c0.54 0 4.48-0.1 10.68-3 0 0-1.19 3.39-9.3 9.84 0.49 15.26-7.06 43.47-35 53.51-6.1362 2.245-12.616 3.405-19.15 3.43-10.468 0.048-20.722-2.966-29.5-8.67 1.5 0.15 2.85 0.15 4.2 0.15 16.52 0 24.52-8.48 24.08-8.48h-0.61c-14 0-17.41-13.4-17.41-13.4 1.1213 0.6778 2.4221 0.9987 3.73 0.92 1.6905-0.0352 3.37-0.2804 5-0.73-15.8-3.74-15.21-18.9-15.21-18.9 2.1352 1.425 4.6335 2.2092 7.2 2.26 0.4222 0.0047 0.8439-0.0287 1.26-0.1-14.43-11.42-5.74-25.05-5.74-25.05 16.26 18.87 36.25 19.54 39 19.54h0.33c-1.48-8.86 2.17-17.37 12-22 2.0506-0.9417 4.2836-1.4197 6.54-1.4h0.07zm35.06-12.66-12.93 9.08c-1.975 1.1837-4.11 2.0763-6.34 2.65-4.5257-3.5339-10.088-5.4807-15.83-5.54-3.2098-0.0297-6.3862 0.6534-9.3 2-9.18 4.31-14.76 11.75-15.87 20.68-10.868-2.2414-20.66-8.0872-27.79-16.59l-5.7-6.61-4.7 7.33c-3.03 4.9914-4.2318 10.88-3.4 16.66l-0.37 9.53c-0.083 6.0497 1.9271 11.942 5.69 16.68l1 3.9c1.4343 5.0363 4.3465 9.5265 8.36 12.89-2.6702 0.5842-5.3967 0.8726-8.13 0.86-1.19 0-2.42-0.05-3.66-0.15l-22.93-1.91 18.55 13.63c9.8993 6.513 21.5 9.96 33.35 9.91 7.2929-0.02 14.527-1.305 21.38-3.8 13.748-4.906 25.092-14.894 31.7-27.91 4.571-8.8881 7.154-18.664 7.57-28.65 6.63-5.71 8.45-9.35 8.94-10.74l5.12-14.57-7 3.26 2.29-12.59z" fill="#000"/>
</svg>
